<mxfile host="app.diagrams.net" modified="2023-09-23T22:50:32.236Z" agent="Mozilla/5.0 (Windows NT 10.0; Win64; x64) AppleWebKit/537.36 (KHTML, like Gecko) Chrome/116.0.0.0 Safari/537.36" etag="GhxjZRUEcLXWnfwirMz7" version="21.6.9" type="device">
  <diagram name="Page-1" id="7gz8fUo5jUYRIZSbD2MM">
    <mxGraphModel dx="1453" dy="308" grid="1" gridSize="10" guides="1" tooltips="1" connect="1" arrows="1" fold="1" page="1" pageScale="1" pageWidth="850" pageHeight="1100" math="0" shadow="0">
      <root>
        <mxCell id="0" />
        <mxCell id="1" parent="0" />
        <mxCell id="Y1U6jalpurQT4rHBl8ot-18" style="edgeStyle=orthogonalEdgeStyle;rounded=0;orthogonalLoop=1;jettySize=auto;html=1;exitX=0;exitY=0.25;exitDx=0;exitDy=0;" edge="1" parent="1" source="Y1U6jalpurQT4rHBl8ot-2" target="Y1U6jalpurQT4rHBl8ot-4">
          <mxGeometry relative="1" as="geometry" />
        </mxCell>
        <mxCell id="Y1U6jalpurQT4rHBl8ot-19" style="edgeStyle=orthogonalEdgeStyle;rounded=0;orthogonalLoop=1;jettySize=auto;html=1;exitX=0.5;exitY=1;exitDx=0;exitDy=0;entryX=0.5;entryY=0;entryDx=0;entryDy=0;" edge="1" parent="1" source="Y1U6jalpurQT4rHBl8ot-2" target="Y1U6jalpurQT4rHBl8ot-8">
          <mxGeometry relative="1" as="geometry" />
        </mxCell>
        <mxCell id="Y1U6jalpurQT4rHBl8ot-21" style="edgeStyle=orthogonalEdgeStyle;rounded=0;orthogonalLoop=1;jettySize=auto;html=1;exitX=1;exitY=0.25;exitDx=0;exitDy=0;entryX=0.549;entryY=-0.003;entryDx=0;entryDy=0;entryPerimeter=0;" edge="1" parent="1" source="Y1U6jalpurQT4rHBl8ot-2" target="Y1U6jalpurQT4rHBl8ot-13">
          <mxGeometry relative="1" as="geometry" />
        </mxCell>
        <mxCell id="Y1U6jalpurQT4rHBl8ot-2" value="Iphone" style="html=1;whiteSpace=wrap;" vertex="1" parent="1">
          <mxGeometry x="415" y="60" width="110" height="50" as="geometry" />
        </mxCell>
        <mxCell id="Y1U6jalpurQT4rHBl8ot-4" value="ReprodutorMusical" style="swimlane;fontStyle=1;align=center;verticalAlign=top;childLayout=stackLayout;horizontal=1;startSize=26;horizontalStack=0;resizeParent=1;resizeParentMax=0;resizeLast=0;collapsible=1;marginBottom=0;whiteSpace=wrap;html=1;" vertex="1" parent="1">
          <mxGeometry x="100" y="165" width="160" height="76" as="geometry" />
        </mxCell>
        <mxCell id="Y1U6jalpurQT4rHBl8ot-7" value="+ tocarMusica(): void&lt;br&gt;+ pausarMusica(): void&lt;br&gt;+selecionarMusica(): void" style="text;strokeColor=none;fillColor=none;align=left;verticalAlign=top;spacingLeft=4;spacingRight=4;overflow=hidden;rotatable=0;points=[[0,0.5],[1,0.5]];portConstraint=eastwest;whiteSpace=wrap;html=1;" vertex="1" parent="Y1U6jalpurQT4rHBl8ot-4">
          <mxGeometry y="26" width="160" height="50" as="geometry" />
        </mxCell>
        <mxCell id="Y1U6jalpurQT4rHBl8ot-8" value="AparelhoTelefonico" style="swimlane;fontStyle=1;align=center;verticalAlign=top;childLayout=stackLayout;horizontal=1;startSize=26;horizontalStack=0;resizeParent=1;resizeParentMax=0;resizeLast=0;collapsible=1;marginBottom=0;whiteSpace=wrap;html=1;" vertex="1" parent="1">
          <mxGeometry x="435" y="165" width="160" height="76" as="geometry" />
        </mxCell>
        <mxCell id="Y1U6jalpurQT4rHBl8ot-11" value="+ ligarTelefone(): void&lt;br&gt;+ atenderTelefone(): void&lt;br&gt;+iniciarCorrerioVoz(): void" style="text;strokeColor=none;fillColor=none;align=left;verticalAlign=top;spacingLeft=4;spacingRight=4;overflow=hidden;rotatable=0;points=[[0,0.5],[1,0.5]];portConstraint=eastwest;whiteSpace=wrap;html=1;" vertex="1" parent="Y1U6jalpurQT4rHBl8ot-8">
          <mxGeometry y="26" width="160" height="50" as="geometry" />
        </mxCell>
        <mxCell id="Y1U6jalpurQT4rHBl8ot-13" value="NavegadorInternet" style="swimlane;fontStyle=0;childLayout=stackLayout;horizontal=1;startSize=26;fillColor=none;horizontalStack=0;resizeParent=1;resizeParentMax=0;resizeLast=0;collapsible=1;marginBottom=0;whiteSpace=wrap;html=1;" vertex="1" parent="1">
          <mxGeometry x="680" y="193" width="160" height="104" as="geometry" />
        </mxCell>
        <mxCell id="Y1U6jalpurQT4rHBl8ot-14" value="+ exibirPagina(): void" style="text;strokeColor=none;fillColor=none;align=left;verticalAlign=top;spacingLeft=4;spacingRight=4;overflow=hidden;rotatable=0;points=[[0,0.5],[1,0.5]];portConstraint=eastwest;whiteSpace=wrap;html=1;" vertex="1" parent="Y1U6jalpurQT4rHBl8ot-13">
          <mxGeometry y="26" width="160" height="26" as="geometry" />
        </mxCell>
        <mxCell id="Y1U6jalpurQT4rHBl8ot-15" value="+&amp;nbsp;adicionarNovaAba(): void" style="text;strokeColor=none;fillColor=none;align=left;verticalAlign=top;spacingLeft=4;spacingRight=4;overflow=hidden;rotatable=0;points=[[0,0.5],[1,0.5]];portConstraint=eastwest;whiteSpace=wrap;html=1;" vertex="1" parent="Y1U6jalpurQT4rHBl8ot-13">
          <mxGeometry y="52" width="160" height="26" as="geometry" />
        </mxCell>
        <mxCell id="Y1U6jalpurQT4rHBl8ot-16" value="+&amp;nbsp;atualizarPagina(): void" style="text;strokeColor=none;fillColor=none;align=left;verticalAlign=top;spacingLeft=4;spacingRight=4;overflow=hidden;rotatable=0;points=[[0,0.5],[1,0.5]];portConstraint=eastwest;whiteSpace=wrap;html=1;" vertex="1" parent="Y1U6jalpurQT4rHBl8ot-13">
          <mxGeometry y="78" width="160" height="26" as="geometry" />
        </mxCell>
        <mxCell id="Y1U6jalpurQT4rHBl8ot-20" style="edgeStyle=orthogonalEdgeStyle;rounded=0;orthogonalLoop=1;jettySize=auto;html=1;exitX=0;exitY=0.25;exitDx=0;exitDy=0;entryX=0;entryY=0.5;entryDx=0;entryDy=0;" edge="1" parent="1" source="Y1U6jalpurQT4rHBl8ot-2" target="Y1U6jalpurQT4rHBl8ot-2">
          <mxGeometry relative="1" as="geometry" />
        </mxCell>
        <mxCell id="Y1U6jalpurQT4rHBl8ot-25" value="" style="ellipse;whiteSpace=wrap;html=1;align=center;aspect=fixed;fillColor=none;strokeColor=none;resizable=0;perimeter=centerPerimeter;rotatable=0;allowArrows=0;points=[];outlineConnect=1;" vertex="1" parent="1">
          <mxGeometry x="425" y="175" width="10" height="10" as="geometry" />
        </mxCell>
        <mxCell id="Y1U6jalpurQT4rHBl8ot-30" value="TocadorDeMusica" style="swimlane;fontStyle=1;align=center;verticalAlign=top;childLayout=stackLayout;horizontal=1;startSize=26;horizontalStack=0;resizeParent=1;resizeParentMax=0;resizeLast=0;collapsible=1;marginBottom=0;whiteSpace=wrap;html=1;" vertex="1" parent="1">
          <mxGeometry x="90" y="275" width="180" height="80" as="geometry" />
        </mxCell>
        <mxCell id="Y1U6jalpurQT4rHBl8ot-31" value="+ playlist &amp;lt;&amp;lt;list&amp;gt;&amp;gt;: Musica[]&amp;nbsp;" style="text;strokeColor=none;fillColor=none;align=left;verticalAlign=top;spacingLeft=4;spacingRight=4;overflow=hidden;rotatable=0;points=[[0,0.5],[1,0.5]];portConstraint=eastwest;whiteSpace=wrap;html=1;" vertex="1" parent="Y1U6jalpurQT4rHBl8ot-30">
          <mxGeometry y="26" width="180" height="26" as="geometry" />
        </mxCell>
        <mxCell id="Y1U6jalpurQT4rHBl8ot-32" value="" style="line;strokeWidth=1;fillColor=none;align=left;verticalAlign=middle;spacingTop=-1;spacingLeft=3;spacingRight=3;rotatable=0;labelPosition=right;points=[];portConstraint=eastwest;strokeColor=inherit;" vertex="1" parent="Y1U6jalpurQT4rHBl8ot-30">
          <mxGeometry y="52" width="180" height="28" as="geometry" />
        </mxCell>
        <mxCell id="Y1U6jalpurQT4rHBl8ot-34" value="Telefone" style="swimlane;fontStyle=1;align=center;verticalAlign=top;childLayout=stackLayout;horizontal=1;startSize=20;horizontalStack=0;resizeParent=1;resizeParentMax=0;resizeLast=0;collapsible=1;marginBottom=0;whiteSpace=wrap;html=1;" vertex="1" parent="1">
          <mxGeometry x="425" y="265" width="170" height="54" as="geometry" />
        </mxCell>
        <mxCell id="Y1U6jalpurQT4rHBl8ot-35" value="+ contatos &amp;lt;&amp;lt;list&amp;gt;&amp;gt;: Contato[]" style="text;strokeColor=none;fillColor=none;align=left;verticalAlign=top;spacingLeft=4;spacingRight=4;overflow=hidden;rotatable=0;points=[[0,0.5],[1,0.5]];portConstraint=eastwest;whiteSpace=wrap;html=1;" vertex="1" parent="Y1U6jalpurQT4rHBl8ot-34">
          <mxGeometry y="20" width="170" height="26" as="geometry" />
        </mxCell>
        <mxCell id="Y1U6jalpurQT4rHBl8ot-36" value="" style="line;strokeWidth=1;fillColor=none;align=left;verticalAlign=middle;spacingTop=-1;spacingLeft=3;spacingRight=3;rotatable=0;labelPosition=right;points=[];portConstraint=eastwest;strokeColor=inherit;" vertex="1" parent="Y1U6jalpurQT4rHBl8ot-34">
          <mxGeometry y="46" width="170" height="8" as="geometry" />
        </mxCell>
        <mxCell id="Y1U6jalpurQT4rHBl8ot-43" value="" style="ellipse;whiteSpace=wrap;html=1;align=center;aspect=fixed;fillColor=none;strokeColor=none;resizable=0;perimeter=centerPerimeter;rotatable=0;allowArrows=0;points=[];outlineConnect=1;" vertex="1" parent="1">
          <mxGeometry x="605" y="295" width="10" height="10" as="geometry" />
        </mxCell>
        <mxCell id="Y1U6jalpurQT4rHBl8ot-47" value="" style="endArrow=block;dashed=1;endFill=0;endSize=12;html=1;rounded=0;exitX=0.5;exitY=0;exitDx=0;exitDy=0;" edge="1" parent="1" source="Y1U6jalpurQT4rHBl8ot-30">
          <mxGeometry width="160" relative="1" as="geometry">
            <mxPoint x="140" y="264" as="sourcePoint" />
            <mxPoint x="180" y="245" as="targetPoint" />
          </mxGeometry>
        </mxCell>
        <mxCell id="Y1U6jalpurQT4rHBl8ot-48" value="" style="endArrow=block;dashed=1;endFill=0;endSize=12;html=1;rounded=0;" edge="1" parent="1">
          <mxGeometry width="160" relative="1" as="geometry">
            <mxPoint x="515" y="269" as="sourcePoint" />
            <mxPoint x="514.8" y="239" as="targetPoint" />
          </mxGeometry>
        </mxCell>
        <mxCell id="Y1U6jalpurQT4rHBl8ot-49" value="" style="endArrow=block;dashed=1;endFill=0;endSize=12;html=1;rounded=0;exitX=0.5;exitY=0;exitDx=0;exitDy=0;" edge="1" parent="1">
          <mxGeometry width="160" relative="1" as="geometry">
            <mxPoint x="759.8" y="327" as="sourcePoint" />
            <mxPoint x="759.8" y="297" as="targetPoint" />
          </mxGeometry>
        </mxCell>
        <mxCell id="Y1U6jalpurQT4rHBl8ot-50" value="Musica" style="swimlane;fontStyle=1;align=center;verticalAlign=top;childLayout=stackLayout;horizontal=1;startSize=26;horizontalStack=0;resizeParent=1;resizeParentMax=0;resizeLast=0;collapsible=1;marginBottom=0;whiteSpace=wrap;html=1;" vertex="1" parent="1">
          <mxGeometry x="-80" y="240" width="120" height="108" as="geometry" />
        </mxCell>
        <mxCell id="Y1U6jalpurQT4rHBl8ot-51" value="+ nome: string&lt;br&gt;+ localArquivo: string" style="text;strokeColor=none;fillColor=none;align=left;verticalAlign=top;spacingLeft=4;spacingRight=4;overflow=hidden;rotatable=0;points=[[0,0.5],[1,0.5]];portConstraint=eastwest;whiteSpace=wrap;html=1;" vertex="1" parent="Y1U6jalpurQT4rHBl8ot-50">
          <mxGeometry y="26" width="120" height="74" as="geometry" />
        </mxCell>
        <mxCell id="Y1U6jalpurQT4rHBl8ot-52" value="" style="line;strokeWidth=1;fillColor=none;align=left;verticalAlign=middle;spacingTop=-1;spacingLeft=3;spacingRight=3;rotatable=0;labelPosition=right;points=[];portConstraint=eastwest;strokeColor=inherit;" vertex="1" parent="Y1U6jalpurQT4rHBl8ot-50">
          <mxGeometry y="100" width="120" height="8" as="geometry" />
        </mxCell>
        <mxCell id="Y1U6jalpurQT4rHBl8ot-57" style="edgeStyle=orthogonalEdgeStyle;rounded=0;orthogonalLoop=1;jettySize=auto;html=1;entryX=0.444;entryY=1;entryDx=0;entryDy=0;entryPerimeter=0;" edge="1" parent="1" source="Y1U6jalpurQT4rHBl8ot-54" target="Y1U6jalpurQT4rHBl8ot-32">
          <mxGeometry relative="1" as="geometry" />
        </mxCell>
        <mxCell id="Y1U6jalpurQT4rHBl8ot-54" value="Discman" style="html=1;whiteSpace=wrap;" vertex="1" parent="1">
          <mxGeometry x="120" y="391" width="110" height="50" as="geometry" />
        </mxCell>
        <mxCell id="Y1U6jalpurQT4rHBl8ot-58" value="" style="endArrow=diamondThin;endFill=0;endSize=24;html=1;rounded=0;entryX=1.002;entryY=0.59;entryDx=0;entryDy=0;entryPerimeter=0;exitX=-0.012;exitY=0.301;exitDx=0;exitDy=0;exitPerimeter=0;" edge="1" parent="1" source="Y1U6jalpurQT4rHBl8ot-31" target="Y1U6jalpurQT4rHBl8ot-51">
          <mxGeometry width="160" relative="1" as="geometry">
            <mxPoint x="210" y="360" as="sourcePoint" />
            <mxPoint x="370" y="360" as="targetPoint" />
          </mxGeometry>
        </mxCell>
        <mxCell id="Y1U6jalpurQT4rHBl8ot-59" value="Contato" style="swimlane;fontStyle=1;align=center;verticalAlign=top;childLayout=stackLayout;horizontal=1;startSize=26;horizontalStack=0;resizeParent=1;resizeParentMax=0;resizeLast=0;collapsible=1;marginBottom=0;whiteSpace=wrap;html=1;" vertex="1" parent="1">
          <mxGeometry x="325" y="360" width="120" height="104" as="geometry" />
        </mxCell>
        <mxCell id="Y1U6jalpurQT4rHBl8ot-60" value="+ nome: string&lt;br&gt;+ numero: String" style="text;strokeColor=none;fillColor=none;align=left;verticalAlign=top;spacingLeft=4;spacingRight=4;overflow=hidden;rotatable=0;points=[[0,0.5],[1,0.5]];portConstraint=eastwest;whiteSpace=wrap;html=1;" vertex="1" parent="Y1U6jalpurQT4rHBl8ot-59">
          <mxGeometry y="26" width="120" height="70" as="geometry" />
        </mxCell>
        <mxCell id="Y1U6jalpurQT4rHBl8ot-61" value="" style="line;strokeWidth=1;fillColor=none;align=left;verticalAlign=middle;spacingTop=-1;spacingLeft=3;spacingRight=3;rotatable=0;labelPosition=right;points=[];portConstraint=eastwest;strokeColor=inherit;" vertex="1" parent="Y1U6jalpurQT4rHBl8ot-59">
          <mxGeometry y="96" width="120" height="8" as="geometry" />
        </mxCell>
        <mxCell id="Y1U6jalpurQT4rHBl8ot-64" value="" style="endArrow=diamondThin;endFill=0;endSize=24;html=1;rounded=0;entryX=0.5;entryY=0;entryDx=0;entryDy=0;exitX=0;exitY=0.5;exitDx=0;exitDy=0;" edge="1" parent="1" source="Y1U6jalpurQT4rHBl8ot-35" target="Y1U6jalpurQT4rHBl8ot-59">
          <mxGeometry width="160" relative="1" as="geometry">
            <mxPoint x="483" y="355" as="sourcePoint" />
            <mxPoint x="415" y="391" as="targetPoint" />
          </mxGeometry>
        </mxCell>
        <mxCell id="Y1U6jalpurQT4rHBl8ot-72" style="edgeStyle=orthogonalEdgeStyle;rounded=0;orthogonalLoop=1;jettySize=auto;html=1;entryX=0.5;entryY=1;entryDx=0;entryDy=0;" edge="1" parent="1" source="Y1U6jalpurQT4rHBl8ot-65" target="Y1U6jalpurQT4rHBl8ot-68">
          <mxGeometry relative="1" as="geometry" />
        </mxCell>
        <mxCell id="Y1U6jalpurQT4rHBl8ot-65" value="Netscape" style="html=1;whiteSpace=wrap;" vertex="1" parent="1">
          <mxGeometry x="710" y="421" width="110" height="50" as="geometry" />
        </mxCell>
        <mxCell id="Y1U6jalpurQT4rHBl8ot-67" style="edgeStyle=orthogonalEdgeStyle;rounded=0;orthogonalLoop=1;jettySize=auto;html=1;entryX=0.5;entryY=1;entryDx=0;entryDy=0;" edge="1" parent="1" source="Y1U6jalpurQT4rHBl8ot-66" target="Y1U6jalpurQT4rHBl8ot-34">
          <mxGeometry relative="1" as="geometry" />
        </mxCell>
        <mxCell id="Y1U6jalpurQT4rHBl8ot-66" value="Nokia N95" style="html=1;whiteSpace=wrap;" vertex="1" parent="1">
          <mxGeometry x="477.5" y="387" width="65" height="28" as="geometry" />
        </mxCell>
        <mxCell id="Y1U6jalpurQT4rHBl8ot-68" value="Navegador" style="swimlane;fontStyle=1;align=center;verticalAlign=top;childLayout=stackLayout;horizontal=1;startSize=20;horizontalStack=0;resizeParent=1;resizeParentMax=0;resizeLast=0;collapsible=1;marginBottom=0;whiteSpace=wrap;html=1;" vertex="1" parent="1">
          <mxGeometry x="680" y="330" width="170" height="54" as="geometry" />
        </mxCell>
        <mxCell id="Y1U6jalpurQT4rHBl8ot-69" value="+ contatos &amp;lt;&amp;lt;list&amp;gt;&amp;gt;: Contato[]" style="text;strokeColor=none;fillColor=none;align=left;verticalAlign=top;spacingLeft=4;spacingRight=4;overflow=hidden;rotatable=0;points=[[0,0.5],[1,0.5]];portConstraint=eastwest;whiteSpace=wrap;html=1;" vertex="1" parent="Y1U6jalpurQT4rHBl8ot-68">
          <mxGeometry y="20" width="170" height="26" as="geometry" />
        </mxCell>
        <mxCell id="Y1U6jalpurQT4rHBl8ot-70" value="" style="line;strokeWidth=1;fillColor=none;align=left;verticalAlign=middle;spacingTop=-1;spacingLeft=3;spacingRight=3;rotatable=0;labelPosition=right;points=[];portConstraint=eastwest;strokeColor=inherit;" vertex="1" parent="Y1U6jalpurQT4rHBl8ot-68">
          <mxGeometry y="46" width="170" height="8" as="geometry" />
        </mxCell>
        <mxCell id="Y1U6jalpurQT4rHBl8ot-71" value="" style="ellipse;whiteSpace=wrap;html=1;align=center;aspect=fixed;fillColor=none;strokeColor=none;resizable=0;perimeter=centerPerimeter;rotatable=0;allowArrows=0;points=[];outlineConnect=1;" vertex="1" parent="1">
          <mxGeometry x="722.5" y="421" width="10" height="10" as="geometry" />
        </mxCell>
      </root>
    </mxGraphModel>
  </diagram>
</mxfile>
